HIERARCHY
ROOT Hips
{
 OFFSET 0.000000 0.000000 0.000000
 CHANNELS 6 Xposition Yposition Zposition Yrotation Xrotation Zrotation
 JOINT Chest
 {
  OFFSET 0.000000 9.585900 0.002600
  CHANNELS 3 Yrotation Xrotation Zrotation
  JOINT Chest2
  {
   OFFSET 0.000000 9.601200 -0.005300
   CHANNELS 3 Yrotation Xrotation Zrotation
   JOINT Chest3
   {
    OFFSET 0.000000 9.561800 0.000000
    CHANNELS 3 Yrotation Xrotation Zrotation
    JOINT Chest4
    {
     OFFSET 0.000000 9.552100 0.000000
     CHANNELS 3 Yrotation Xrotation Zrotation
     JOINT Neck
     {
      OFFSET 0.000000 14.453000 0.000000
      CHANNELS 3 Yrotation Xrotation Zrotation
      JOINT Head
      {
       OFFSET 0.000000 8.936500 -0.011300
       CHANNELS 3 Yrotation Xrotation Zrotation
       End Site
       {
        OFFSET 0.000000 17.073600 -0.006000
       }
      }
     }
     JOINT RightCollar
     {
      OFFSET -2.921100 9.558500 0.000000
      CHANNELS 3 Yrotation Xrotation Zrotation
      JOINT RightShoulder
      {
       OFFSET -13.519700 0.000000 0.000000
       CHANNELS 3 Yrotation Xrotation Zrotation
       JOINT RightElbow
       {
        OFFSET 0.000000 -29.696600 0.000000
        CHANNELS 3 Yrotation Xrotation Zrotation
        JOINT RightWrist
        {
         OFFSET 0.000000 -24.004700 0.000000
         CHANNELS 3 Yrotation Xrotation Zrotation
         End Site
         {
          OFFSET 0.000000 -17.728500 0.000000
         }
        }
       }
      }
     }
     JOINT LeftCollar
     {
      OFFSET 2.921100 9.558500 0.000000
      CHANNELS 3 Yrotation Xrotation Zrotation
      JOINT LeftShoulder
      {
       OFFSET 13.519700 0.000000 0.000000
       CHANNELS 3 Yrotation Xrotation Zrotation
       JOINT LeftElbow
       {
        OFFSET 0.000000 -29.696600 0.000000
        CHANNELS 3 Yrotation Xrotation Zrotation
        JOINT LeftWrist
        {
         OFFSET 0.000000 -24.004700 0.000000
         CHANNELS 3 Yrotation Xrotation Zrotation
         End Site
         {
          OFFSET 0.000000 -17.728500 0.000000
         }
        }
       }
      }
     }
    }
   }
  }
 }
 JOINT RightHip
 {
  OFFSET -7.771700 -0.012900 -0.001300
  CHANNELS 3 Yrotation Xrotation Zrotation
  JOINT RightKnee
  {
   OFFSET 0.000000 -40.869800 0.001200
   CHANNELS 3 Yrotation Xrotation Zrotation
   JOINT RightAnkle
   {
    OFFSET 0.000000 -39.717900 0.002100
    CHANNELS 3 Yrotation Xrotation Zrotation
    JOINT RightToe
    {
     OFFSET 0.000000 -4.965400 11.033500
     CHANNELS 3 Yrotation Xrotation Zrotation
     End Site
     {
      OFFSET 0.000000 -1.423100 5.872300
     }
    }
   }
  }
 }
 JOINT LeftHip
 {
  OFFSET 7.771700 -0.012900 -0.001300
  CHANNELS 3 Yrotation Xrotation Zrotation
  JOINT LeftKnee
  {
   OFFSET 0.000000 -40.869800 0.001200
   CHANNELS 3 Yrotation Xrotation Zrotation
   JOINT LeftAnkle
   {
    OFFSET 0.000000 -39.717900 0.002100
    CHANNELS 3 Yrotation Xrotation Zrotation
    JOINT LeftToe
    {
     OFFSET 0.000000 -4.965400 11.033500
     CHANNELS 3 Yrotation Xrotation Zrotation
     End Site
     {
      OFFSET 0.000000 -1.423100 5.872300
     }
    }
   }
  }
 }
}
MOTION
Frames: 13
Frame Time: 0.008333
0.000000 85.388000 0.000000 0.000000 -5.767877 0.000000 0.000000 11.653817 0.000000 0.000000 -5.885947 0.000000 0.000000 -0.000000 0.000000 0.000000 -0.000000 0.000000 0.000000 12.528835 0.000000 0.000000 0.711642 0.000000 0.000000 -0.000000 0.000000 0.000000 0.000000 -90.000000 0.000000 -2.309062 0.000000 0.000000 2.309062 0.000000 0.000000 -0.000000 0.000000 0.000000 -0.000000 90.000000 0.000000 -2.309062 0.000000 0.000000 2.309062 0.000000 0.000000 8.520406 0.000000 0.000000 1.905762 0.000000 -0.000000 -4.658285 0.000000 0.000000 -0.000000 0.000000 0.000000 8.520406 0.000000 0.000000 1.905762 0.000000 -0.000000 -4.658285 0.000000 0.000000 -0.000000 0.000000
-8.097937 52.858706 15.902797 179.782272 -15.283836 -2.428127 0.322234 15.452341 1.308501 0.029965 1.472644 0.135606 0.002582 2.428537 0.214269 0.300222 13.758900 1.282187 -0.516711 18.562209 -2.784005 0.099268 -6.107421 -2.834086 2.342472 -8.258880 -2.219966 17.089391 -13.532262 -7.105380 -80.865986 -57.664861 130.449677 -1.255179 -33.985686 -28.796271 -3.838593 -8.037402 4.147343 -7.340654 -11.398287 4.612618 90.118460 -54.794171 -139.746121 -2.429382 -18.956732 9.313072 3.796427 -63.392763 11.117180 174.748628 85.632468 173.795985 -10.869608 -23.527797 13.205112 0.025611 -0.092189 0.015219 3.671625 -61.623278 -1.755019 122.574442 77.650791 121.244013 -5.324442 -20.642567 -1.628269 0.076894 0.223362 0.037198
-8.102716 52.858854 15.903413 179.772515 -15.287266 -2.425979 0.318935 15.446587 1.302359 -0.005247 1.430813 0.119016 0.025897 2.444464 0.219382 0.272547 13.729174 1.267662 -0.539643 18.634617 -2.724340 0.048986 -6.041652 -2.763578 2.253772 -8.058104 -2.158529 17.215648 -13.751610 -7.071729 -80.614975 -57.573904 130.105453 -1.312853 -33.688392 -28.903837 -3.730963 -7.919935 3.992691 -7.313839 -11.612196 4.698819 89.476313 -54.791501 -139.215665 -2.171760 -18.955475 9.353467 3.792111 -63.389281 11.121360 174.822078 85.636149 173.879152 -11.044698 -23.511578 13.245774 0.021110 -0.070047 0.019373 3.727419 -61.623837 -1.814968 122.550789 77.636458 121.246452 -5.299045 -20.639225 -1.630698 0.058544 0.217036 0.028779
-8.104924 52.859345 15.903400 179.764167 -15.298986 -2.442411 0.310473 15.435816 1.306939 0.001601 1.419734 0.108776 0.024756 2.436071 0.216404 0.264684 13.708759 1.252224 -0.583285 18.701321 -2.647656 -0.014818 -5.970051 -2.672486 2.128987 -7.860641 -2.083381 17.394281 -14.019950 -7.035489 -80.412859 -57.457202 129.806438 -1.371706 -33.314764 -29.057918 -3.648166 -7.818884 3.835235 -7.291477 -11.896217 4.822878 88.724222 -54.740087 -138.643270 -1.887750 -18.956228 9.477443 3.729910 -63.375375 11.203124 174.988944 85.645697 174.067793 -11.371907 -23.484659 13.309465 0.008597 -0.042575 0.025242 3.711920 -61.614491 -1.796015 122.546950 77.628771 121.253217 -5.282086 -20.607644 -1.631877 0.046955 0.181825 0.020252
-8.109934 52.859220 15.905069 179.752308 -15.305606 -2.441841 0.307208 15.414694 1.286934 0.011249 1.407165 0.100981 0.024711 2.440791 0.221931 0.265778 13.710842 1.250995 -0.649301 18.734378 -2.584132 -0.092081 -5.896022 -2.561731 1.988671 -7.696771 -2.019184 17.579823 -14.338662 -6.999936 -80.305188 -57.329636 129.629584 -1.433092 -32.862906 -29.259040 -3.577440 -7.764326 3.653880 -7.256548 -12.269365 4.990751 87.868057 -54.618721 -138.050731 -1.588237 -18.971757 9.678763 3.716754 -63.370958 11.251733 175.418367 85.656996 174.531095 -11.790824 -23.446524 13.395337 -0.004913 -0.015447 0.032827 3.722877 -61.608114 -1.805019 122.529696 77.622765 121.245730 -5.283648 -20.612569 -1.636580 0.051324 0.184568 0.019984
-8.114265 52.859442 15.905285 179.747713 -15.327450 -2.445661 0.310254 15.400177 1.267869 0.016287 1.400180 0.091077 0.023285 2.471419 0.247843 0.261965 13.635913 1.179038 -0.703176 18.818050 -2.463678 -0.181276 -5.825825 -2.433549 1.853948 -7.487607 -1.892744 17.709644 -14.709591 -6.968242 -80.332439 -57.211684 129.642998 -1.492543 -32.357535 -29.481828 -3.525560 -7.665345 3.513967 -7.181925 -12.749816 5.204562 86.979562 -54.423981 -137.502098 -1.302444 -18.983992 9.910851 3.703395 -63.347298 11.265539 175.412001 85.661353 174.530057 -11.972868 -23.429131 13.444639 -0.004596 -0.008166 0.029951 3.717940 -61.586346 -1.798896 122.521181 77.622657 121.242356 -5.284632 -20.614859 -1.641216 0.057107 0.186252 0.022655
-8.119752 52.858781 15.908081 179.744971 -15.340061 -2.439762 0.317298 15.344799 1.205905 0.013482 1.446308 0.130639 0.034684 2.404774 0.189461 0.281452 13.640663 1.160553 -0.767220 18.893474 -2.324517 -0.283317 -5.765442 -2.287785 1.727894 -7.294062 -1.738991 17.751544 -15.125580 -6.944929 -80.538121 -57.124365 129.901557 -1.527714 -31.854910 -29.689596 -3.520737 -7.579972 3.375329 -7.043622 -13.343901 5.466259 86.163719 -54.173692 -137.078292 -1.071336 -18.950154 10.109863 3.690495 -63.325360 11.202905 174.533383 85.653852 173.587166 -11.696819 -23.452288 13.422082 0.014395 -0.026146 0.009407 3.731102 -61.573935 -1.815661 122.511817 77.626353 121.238904 -5.297792 -20.652884 -1.649055 0.077075 0.226446 0.033626
-8.123513 52.857997 15.911187 179.739826 -15.357866 -2.438971 0.324967 15.352982 1.197806 0.039457 1.407514 0.079152 0.040417 2.396933 0.180695 0.307419 13.638513 1.136220 -0.810513 18.946419 -2.197464 -0.432527 -5.723245 -2.107392 1.614793 -7.141792 -1.575045 17.719369 -15.565912 -6.934178 -80.991961 -57.096252 130.455110 -1.508339 -31.407531 -29.850595 -3.567996 -7.530950 3.211062 -6.849941 -14.034408 5.762515 85.525225 -53.903547 -136.850532 -0.929630 -18.847746 10.212775 3.637053 -63.299115 11.197168 173.870546 85.649723 172.878367 -11.558754 -23.461976 13.408197 0.022209 -0.032811 -0.001241 3.727353 -61.557695 -1.818504 122.488062 77.623988 121.219051 -5.291453 -20.652215 -1.655216 0.077989 0.229533 0.032910
-8.128662 52.857137 15.914141 179.732991 -15.382677 -2.424357 0.354401 15.342983 1.143986 0.061452 1.400987 0.056856 0.041212 2.402316 0.185763 0.343397 13.629357 1.095051 -0.866717 18.983975 -2.053517 -0.581652 -5.694182 -1.929006 1.516511 -7.021861 -1.384188 17.658692 -16.005979 -6.940816 -81.789868 -57.153793 131.349969 -1.429302 -31.028781 -29.948545 -3.664140 -7.502134 3.032926 -6.635930 -14.787921 6.067927 85.176894 -53.660622 -136.885942 -0.876529 -18.680290 10.185099 3.656191 -63.281094 11.229301 174.515962 85.662533 173.574753 -12.044043 -23.413319 13.496805 0.003698 -0.005418 0.017100 3.746000 -61.534500 -1.843347 122.471289 77.616093 121.199770 -5.289164 -20.646934 -1.656128 0.076686 0.226516 0.031664
-8.132946 52.855872 15.918928 179.729226 -15.400953 -2.410904 0.431171 15.316935 1.056256 0.012286 1.430435 0.122462 0.045189 2.400967 0.181554 0.412951 13.622415 1.013515 -1.006064 18.991079 -1.899592 -0.659466 -5.668181 -1.774912 1.432837 -6.937901 -1.169043 17.623472 -16.437904 -6.969686 -82.995299 -57.303873 132.596253 -1.304139 -30.690497 -29.989691 -3.809090 -7.499201 2.845627 -6.444312 -15.562628 6.361790 85.208649 -53.479067 -137.225438 -0.889100 -18.460220 10.031018 3.637647 -63.268591 11.289880 175.176444 85.679984 174.278638 -12.506553 -23.361409 13.569101 -0.014697 0.014091 0.030613 3.764890 -61.518916 -1.870395 122.454314 77.620624 121.187556 -5.290929 -20.637700 -1.663178 0.078916 0.225500 0.035365
-8.131981 52.854923 15.924226 179.727853 -15.419682 -2.425336 0.505667 15.316865 1.017886 0.019970 1.431983 0.116220 0.057999 2.403546 0.171233 0.459200 13.635495 0.990512 -1.110980 18.997067 -1.746793 -0.778465 -5.661467 -1.596426 1.362427 -6.879861 -0.935908 17.638805 -16.872258 -7.020238 -84.577848 -57.526441 134.142168 -1.149610 -30.356182 -29.976295 -4.000038 -7.525567 2.659212 -6.315006 -16.310273 6.633706 85.650463 -53.366622 -137.861201 -0.943564 -18.210731 9.773340 3.564913 -63.246095 11.345231 175.080556 85.688278 174.156721 -12.429908 -23.351512 13.555241 -0.006134 -0.000450 0.020093 3.728054 -61.509194 -1.837049 122.437579 77.619124 121.171749 -5.265601 -20.586117 -1.667414 0.059180 0.185060 0.027124
-8.136037 52.854114 15.929660 179.733743 -15.437963 -2.408446 0.558997 15.326444 0.956581 0.041691 1.433238 0.095865 0.071542 2.409950 0.161820 0.504271 13.651335 0.972928 -1.200091 19.001759 -1.592840 -0.907657 -5.658084 -1.412848 1.311248 -6.836058 -0.697660 17.691932 -17.321395 -7.087152 -86.434845 -57.785918 135.895796 -0.987080 -30.008381 -29.898762 -4.232798 -7.576822 2.479773 -6.257794 -16.995692 6.884448 86.468709 -53.312450 -138.743683 -1.010340 -17.964466 9.435908 3.533216 -63.221158 11.334279 174.806470 85.689418 173.841696 -12.276653 -23.355193 13.524979 0.034294 -0.010498 0.011760 3.752551 -61.492818 -1.871949 122.406236 77.619686 121.138353 -5.284073 -20.613435 -1.667999 0.074342 0.221126 0.034438
-8.132862 52.854329 15.934726 179.733443 -15.458368 -2.430909 0.632172 15.343690 0.944169 0.031122 1.434463 0.103330 0.098205 2.421169 0.143815 0.559492 13.671007 0.940759 -1.283053 19.008999 -1.445472 -1.028883 -5.651389 -1.237882 1.282616 -6.807442 -0.470637 17.758423 -17.791604 -7.164954 -88.441414 -58.043605 137.752407 -0.832767 -29.638604 -29.759288 -4.503260 -7.647047 2.315547 -6.250064 -17.607572 7.111954 87.568831 -53.291187 -139.801505 -1.070583 -17.750894 9.053407 3.478903 -63.202599 11.377260 174.593265 85.695370 173.609186 -12.076904 -23.335378 13.481949 0.001664 -0.045227 -0.001594 3.705509 -61.478864 -1.818149 122.391468 77.618894 121.123379 -5.269804 -20.571737 -1.669215 0.055868 0.186387 0.027760
